<svg id="Capa_1" data-name="Capa 1" xmlns="http://www.w3.org/2000/svg" xmlns:xlink="http://www.w3.org/1999/xlink" viewBox="0 0 1126 2431"><defs><style>.cls-1{opacity:0.8;}.cls-2{fill:url(#linear-gradient);}.cls-3{fill:url(#linear-gradient-2);}.cls-4{fill:url(#linear-gradient-3);}.cls-5{fill:url(#linear-gradient-4);}.cls-6{fill:url(#linear-gradient-5);}.cls-7{fill:url(#linear-gradient-6);}.cls-8{fill:url(#linear-gradient-7);}.cls-9{fill:url(#linear-gradient-8);}.cls-10{fill:url(#linear-gradient-9);}.cls-11{fill:url(#linear-gradient-10);}.cls-12{fill:url(#linear-gradient-11);}.cls-13{fill:url(#linear-gradient-12);}.cls-14{fill:url(#linear-gradient-13);}.cls-15{fill:url(#linear-gradient-14);}.cls-16{fill:url(#linear-gradient-15);}.cls-17{fill:url(#linear-gradient-16);}.cls-18{fill:url(#linear-gradient-17);}.cls-19{fill:url(#linear-gradient-18);}.cls-20{fill:url(#linear-gradient-19);}.cls-21{fill:url(#linear-gradient-20);}.cls-22{fill:url(#linear-gradient-21);}.cls-23{fill:url(#linear-gradient-22);}.cls-24{fill:url(#linear-gradient-23);}.cls-25{fill:url(#linear-gradient-24);}.cls-26{fill:url(#linear-gradient-25);}.cls-27{fill:url(#linear-gradient-26);}.cls-28{fill:url(#linear-gradient-27);}.cls-29{fill:url(#linear-gradient-28);}.cls-30{fill:url(#linear-gradient-29);}.cls-31{fill:url(#linear-gradient-30);}.cls-32{fill:url(#linear-gradient-31);}.cls-33{fill:url(#linear-gradient-32);}.cls-34{fill:url(#linear-gradient-33);}.cls-35{fill:url(#linear-gradient-34);}.cls-36{fill:url(#linear-gradient-35);}.cls-37{fill:url(#linear-gradient-36);}.cls-38{fill:url(#linear-gradient-37);}.cls-39{fill:url(#linear-gradient-38);}.cls-40{fill:url(#linear-gradient-39);}.cls-41{fill:url(#linear-gradient-40);}.cls-42{fill:url(#linear-gradient-41);}.cls-43{fill:url(#linear-gradient-42);}.cls-44{fill:url(#linear-gradient-43);}.cls-45{fill:url(#linear-gradient-44);}.cls-46{fill:url(#linear-gradient-45);}.cls-47{fill:url(#linear-gradient-46);}.cls-48{fill:url(#linear-gradient-47);}.cls-49{fill:url(#linear-gradient-48);}.cls-50{fill:url(#linear-gradient-49);}.cls-51{fill:url(#linear-gradient-50);}.cls-52{fill:url(#linear-gradient-51);}.cls-53{fill:url(#linear-gradient-52);}.cls-54{fill:url(#linear-gradient-53);}.cls-55{fill:url(#linear-gradient-54);}.cls-56{fill:url(#linear-gradient-55);}.cls-57{fill:url(#linear-gradient-56);}.cls-58{fill:url(#linear-gradient-57);}.cls-59{fill:url(#linear-gradient-58);}.cls-60{fill:url(#linear-gradient-59);}.cls-61{fill:url(#linear-gradient-60);}.cls-62{fill:url(#linear-gradient-61);}.cls-63{fill:url(#linear-gradient-62);}.cls-64{fill:url(#linear-gradient-63);}.cls-65{fill:url(#linear-gradient-64);}.cls-66{opacity:0.84;fill:url(#Degradado_sin_nombre_11);}</style><linearGradient id="linear-gradient" x1="-179.31" y1="3181.36" x2="101.96" y2="3181.36" gradientTransform="matrix(1, 0, 0, -1, 179.04, 3332.86)" gradientUnits="userSpaceOnUse"><stop offset="0" stop-color="#0e70b9"/><stop offset="1" stop-color="#1e80c9"/></linearGradient><linearGradient id="linear-gradient-2" x1="-39.58" y1="3029.48" x2="-39.58" y2="3335.19" gradientTransform="matrix(1, 0, 0, -1, 179.04, 3332.86)" gradientUnits="userSpaceOnUse"><stop offset="0" stop-color="#0888c9"/><stop offset="1" stop-color="#0066a7"/></linearGradient><linearGradient id="linear-gradient-3" x1="383.23" y1="3181.36" x2="101.96" y2="3181.36" gradientTransform="matrix(1, 0, 0, -1, 179.04, 3332.86)" gradientUnits="userSpaceOnUse"><stop offset="0" stop-color="#0e70b9"/><stop offset="1" stop-color="#005aa3"/></linearGradient><linearGradient id="linear-gradient-4" x1="243.48" y1="3029.48" x2="243.48" y2="3335.19" gradientTransform="matrix(1, 0, 0, -1, 179.04, 3332.86)" gradientUnits="userSpaceOnUse"><stop offset="0" stop-color="#1758aa"/><stop offset="1" stop-color="#003385"/></linearGradient><linearGradient id="linear-gradient-5" x1="384.69" y1="3181.36" x2="665.96" y2="3181.36" xlink:href="#linear-gradient"/><linearGradient id="linear-gradient-6" x1="524.42" y1="3029.48" x2="524.42" y2="3335.19" xlink:href="#linear-gradient-2"/><linearGradient id="linear-gradient-7" x1="947.23" y1="3181.36" x2="665.96" y2="3181.36" xlink:href="#linear-gradient-3"/><linearGradient id="linear-gradient-8" x1="807.48" y1="3029.48" x2="807.48" y2="3335.19" xlink:href="#linear-gradient-4"/><linearGradient id="linear-gradient-9" x1="-3312.84" y1="-4217.96" x2="-3031.57" y2="-4217.96" gradientTransform="matrix(-1, 0, 0, 1, -2186.57, 4673.46)" xlink:href="#linear-gradient"/><linearGradient id="linear-gradient-10" x1="-3173.11" y1="-4369.84" x2="-3173.11" y2="-4064.13" gradientTransform="matrix(-1, 0, 0, 1, -2186.57, 4673.46)" xlink:href="#linear-gradient-2"/><linearGradient id="linear-gradient-11" x1="-2750.31" y1="-4217.96" x2="-3031.57" y2="-4217.96" gradientTransform="matrix(-1, 0, 0, 1, -2186.57, 4673.46)" xlink:href="#linear-gradient-3"/><linearGradient id="linear-gradient-12" x1="-2890.05" y1="-4369.84" x2="-2890.05" y2="-4064.13" gradientTransform="matrix(-1, 0, 0, 1, -2186.57, 4673.46)" xlink:href="#linear-gradient-4"/><linearGradient id="linear-gradient-13" x1="-2748.84" y1="-4217.96" x2="-2467.57" y2="-4217.96" gradientTransform="matrix(-1, 0, 0, 1, -2186.57, 4673.46)" xlink:href="#linear-gradient"/><linearGradient id="linear-gradient-14" x1="-2609.11" y1="-4369.84" x2="-2609.11" y2="-4064.13" gradientTransform="matrix(-1, 0, 0, 1, -2186.57, 4673.46)" xlink:href="#linear-gradient-2"/><linearGradient id="linear-gradient-15" x1="-2186.31" y1="-4217.96" x2="-2467.57" y2="-4217.96" gradientTransform="matrix(-1, 0, 0, 1, -2186.57, 4673.46)" xlink:href="#linear-gradient-3"/><linearGradient id="linear-gradient-16" x1="-2326.05" y1="-4369.84" x2="-2326.05" y2="-4064.13" gradientTransform="matrix(-1, 0, 0, 1, -2186.57, 4673.46)" xlink:href="#linear-gradient-4"/><linearGradient id="linear-gradient-17" x1="-179.31" y1="2573.36" x2="101.96" y2="2573.36" xlink:href="#linear-gradient"/><linearGradient id="linear-gradient-18" x1="-39.58" y1="2421.48" x2="-39.58" y2="2727.19" xlink:href="#linear-gradient-2"/><linearGradient id="linear-gradient-19" x1="383.23" y1="2573.36" x2="101.96" y2="2573.36" xlink:href="#linear-gradient-3"/><linearGradient id="linear-gradient-20" x1="243.48" y1="2421.48" x2="243.48" y2="2727.19" xlink:href="#linear-gradient-4"/><linearGradient id="linear-gradient-21" x1="384.69" y1="2573.36" x2="665.96" y2="2573.36" xlink:href="#linear-gradient"/><linearGradient id="linear-gradient-22" x1="524.42" y1="2421.48" x2="524.42" y2="2727.19" xlink:href="#linear-gradient-2"/><linearGradient id="linear-gradient-23" x1="947.23" y1="2573.36" x2="665.96" y2="2573.36" xlink:href="#linear-gradient-3"/><linearGradient id="linear-gradient-24" x1="807.48" y1="2421.48" x2="807.48" y2="2727.19" xlink:href="#linear-gradient-4"/><linearGradient id="linear-gradient-25" x1="-3312.84" y1="-3609.96" x2="-3031.57" y2="-3609.96" gradientTransform="matrix(-1, 0, 0, 1, -2186.57, 4673.46)" xlink:href="#linear-gradient"/><linearGradient id="linear-gradient-26" x1="-3173.11" y1="-3761.84" x2="-3173.11" y2="-3456.13" gradientTransform="matrix(-1, 0, 0, 1, -2186.57, 4673.46)" xlink:href="#linear-gradient-2"/><linearGradient id="linear-gradient-27" x1="-2750.31" y1="-3609.96" x2="-3031.57" y2="-3609.96" gradientTransform="matrix(-1, 0, 0, 1, -2186.57, 4673.46)" xlink:href="#linear-gradient-3"/><linearGradient id="linear-gradient-28" x1="-2890.05" y1="-3761.84" x2="-2890.05" y2="-3456.13" gradientTransform="matrix(-1, 0, 0, 1, -2186.57, 4673.46)" xlink:href="#linear-gradient-4"/><linearGradient id="linear-gradient-29" x1="-2748.84" y1="-3609.96" x2="-2467.57" y2="-3609.96" gradientTransform="matrix(-1, 0, 0, 1, -2186.57, 4673.46)" xlink:href="#linear-gradient"/><linearGradient id="linear-gradient-30" x1="-2609.11" y1="-3761.84" x2="-2609.11" y2="-3456.13" gradientTransform="matrix(-1, 0, 0, 1, -2186.57, 4673.46)" xlink:href="#linear-gradient-2"/><linearGradient id="linear-gradient-31" x1="-2186.31" y1="-3609.96" x2="-2467.57" y2="-3609.96" gradientTransform="matrix(-1, 0, 0, 1, -2186.57, 4673.46)" xlink:href="#linear-gradient-3"/><linearGradient id="linear-gradient-32" x1="-2326.05" y1="-3761.84" x2="-2326.05" y2="-3456.13" gradientTransform="matrix(-1, 0, 0, 1, -2186.57, 4673.46)" xlink:href="#linear-gradient-4"/><linearGradient id="linear-gradient-33" x1="-179.31" y1="1965.36" x2="101.96" y2="1965.36" xlink:href="#linear-gradient"/><linearGradient id="linear-gradient-34" x1="-39.58" y1="1813.48" x2="-39.58" y2="2119.19" xlink:href="#linear-gradient-2"/><linearGradient id="linear-gradient-35" x1="383.23" y1="1965.36" x2="101.96" y2="1965.36" xlink:href="#linear-gradient-3"/><linearGradient id="linear-gradient-36" x1="243.48" y1="1813.48" x2="243.48" y2="2119.19" xlink:href="#linear-gradient-4"/><linearGradient id="linear-gradient-37" x1="384.69" y1="1965.36" x2="665.96" y2="1965.36" xlink:href="#linear-gradient"/><linearGradient id="linear-gradient-38" x1="524.42" y1="1813.48" x2="524.42" y2="2119.19" xlink:href="#linear-gradient-2"/><linearGradient id="linear-gradient-39" x1="947.23" y1="1965.36" x2="665.96" y2="1965.36" xlink:href="#linear-gradient-3"/><linearGradient id="linear-gradient-40" x1="807.48" y1="1813.48" x2="807.48" y2="2119.19" xlink:href="#linear-gradient-4"/><linearGradient id="linear-gradient-41" x1="-3312.84" y1="-3001.96" x2="-3031.57" y2="-3001.96" gradientTransform="matrix(-1, 0, 0, 1, -2186.57, 4673.46)" xlink:href="#linear-gradient"/><linearGradient id="linear-gradient-42" x1="-3173.11" y1="-3153.84" x2="-3173.11" y2="-2848.13" gradientTransform="matrix(-1, 0, 0, 1, -2186.57, 4673.46)" xlink:href="#linear-gradient-2"/><linearGradient id="linear-gradient-43" x1="-2750.31" y1="-3001.96" x2="-3031.57" y2="-3001.96" gradientTransform="matrix(-1, 0, 0, 1, -2186.57, 4673.46)" xlink:href="#linear-gradient-3"/><linearGradient id="linear-gradient-44" x1="-2890.05" y1="-3153.84" x2="-2890.05" y2="-2848.13" gradientTransform="matrix(-1, 0, 0, 1, -2186.57, 4673.46)" xlink:href="#linear-gradient-4"/><linearGradient id="linear-gradient-45" x1="-2748.84" y1="-3001.96" x2="-2467.57" y2="-3001.96" gradientTransform="matrix(-1, 0, 0, 1, -2186.57, 4673.46)" xlink:href="#linear-gradient"/><linearGradient id="linear-gradient-46" x1="-2609.11" y1="-3153.84" x2="-2609.11" y2="-2848.13" gradientTransform="matrix(-1, 0, 0, 1, -2186.57, 4673.46)" xlink:href="#linear-gradient-2"/><linearGradient id="linear-gradient-47" x1="-2186.31" y1="-3001.96" x2="-2467.57" y2="-3001.96" gradientTransform="matrix(-1, 0, 0, 1, -2186.57, 4673.46)" xlink:href="#linear-gradient-3"/><linearGradient id="linear-gradient-48" x1="-2326.05" y1="-3153.84" x2="-2326.05" y2="-2848.13" gradientTransform="matrix(-1, 0, 0, 1, -2186.57, 4673.46)" xlink:href="#linear-gradient-4"/><linearGradient id="linear-gradient-49" x1="-179.31" y1="1357.36" x2="101.96" y2="1357.36" xlink:href="#linear-gradient"/><linearGradient id="linear-gradient-50" x1="-39.58" y1="1205.48" x2="-39.58" y2="1511.19" xlink:href="#linear-gradient-2"/><linearGradient id="linear-gradient-51" x1="383.23" y1="1357.36" x2="101.96" y2="1357.36" xlink:href="#linear-gradient-3"/><linearGradient id="linear-gradient-52" x1="243.48" y1="1205.48" x2="243.48" y2="1511.19" xlink:href="#linear-gradient-4"/><linearGradient id="linear-gradient-53" x1="384.69" y1="1357.36" x2="665.96" y2="1357.36" xlink:href="#linear-gradient"/><linearGradient id="linear-gradient-54" x1="524.42" y1="1205.48" x2="524.42" y2="1511.19" xlink:href="#linear-gradient-2"/><linearGradient id="linear-gradient-55" x1="947.23" y1="1357.36" x2="665.96" y2="1357.36" xlink:href="#linear-gradient-3"/><linearGradient id="linear-gradient-56" x1="807.48" y1="1205.48" x2="807.48" y2="1511.19" xlink:href="#linear-gradient-4"/><linearGradient id="linear-gradient-57" x1="-3312.84" y1="-2393.96" x2="-3031.57" y2="-2393.96" gradientTransform="matrix(-1, 0, 0, 1, -2186.57, 4673.46)" xlink:href="#linear-gradient"/><linearGradient id="linear-gradient-58" x1="-3173.11" y1="-2545.84" x2="-3173.11" y2="-2240.13" gradientTransform="matrix(-1, 0, 0, 1, -2186.57, 4673.46)" xlink:href="#linear-gradient-2"/><linearGradient id="linear-gradient-59" x1="-2750.31" y1="-2393.96" x2="-3031.57" y2="-2393.96" gradientTransform="matrix(-1, 0, 0, 1, -2186.57, 4673.46)" xlink:href="#linear-gradient-3"/><linearGradient id="linear-gradient-60" x1="-2890.05" y1="-2545.84" x2="-2890.05" y2="-2240.13" gradientTransform="matrix(-1, 0, 0, 1, -2186.57, 4673.46)" xlink:href="#linear-gradient-4"/><linearGradient id="linear-gradient-61" x1="-2748.84" y1="-2393.96" x2="-2467.57" y2="-2393.96" gradientTransform="matrix(-1, 0, 0, 1, -2186.57, 4673.46)" xlink:href="#linear-gradient"/><linearGradient id="linear-gradient-62" x1="-2609.11" y1="-2545.84" x2="-2609.11" y2="-2240.13" gradientTransform="matrix(-1, 0, 0, 1, -2186.57, 4673.46)" xlink:href="#linear-gradient-2"/><linearGradient id="linear-gradient-63" x1="-2186.31" y1="-2393.96" x2="-2467.57" y2="-2393.96" gradientTransform="matrix(-1, 0, 0, 1, -2186.57, 4673.46)" xlink:href="#linear-gradient-3"/><linearGradient id="linear-gradient-64" x1="-2326.05" y1="-2545.84" x2="-2326.05" y2="-2240.13" gradientTransform="matrix(-1, 0, 0, 1, -2186.57, 4673.46)" xlink:href="#linear-gradient-4"/><linearGradient id="Degradado_sin_nombre_11" x1="563" y1="2431" x2="563" y2="16.81" gradientUnits="userSpaceOnUse"><stop offset="0" stop-color="#00a99d"/><stop offset="0.18" stop-color="#0392aa"/><stop offset="0.51" stop-color="#095ec7"/><stop offset="0.65" stop-color="#076fbe"/><stop offset="0.92" stop-color="#029ba5"/><stop offset="1" stop-color="#00a99d"/></linearGradient></defs><title>fondo1</title><g class="cls-1"><polygon class="cls-2" points="279.19 -0.38 -0.27 303.38 281 303.38 281 -0.38 279.19 -0.38"/><polygon class="cls-3" points="-0.27 -0.38 -0.27 303.38 279.19 -0.38 -0.27 -0.38"/><polygon class="cls-4" points="281 -0.38 281 303.38 562.27 303.38 282.78 -0.38 281 -0.38"/><polygon class="cls-5" points="282.78 -0.38 562.27 303.38 562.27 -0.38 282.78 -0.38"/><polygon class="cls-6" points="843.19 -0.38 563.73 303.38 845 303.38 845 -0.38 843.19 -0.38"/><polygon class="cls-7" points="563.73 -0.38 563.73 303.38 843.19 -0.38 563.73 -0.38"/><polygon class="cls-8" points="845 -0.38 845 303.38 1126.27 303.38 846.78 -0.38 845 -0.38"/><polygon class="cls-9" points="846.78 -0.38 1126.27 303.38 1126.27 -0.38 846.78 -0.38"/><polygon class="cls-10" points="846.81 607.38 1126.27 303.62 845 303.62 845 607.38 846.81 607.38"/><polygon class="cls-11" points="1126.27 607.38 1126.27 303.62 846.81 607.38 1126.27 607.38"/><polygon class="cls-12" points="845 607.38 845 303.62 563.73 303.62 843.22 607.38 845 607.38"/><polygon class="cls-13" points="843.22 607.38 563.73 303.62 563.73 607.38 843.22 607.38"/><polygon class="cls-14" points="282.81 607.38 562.27 303.62 281 303.62 281 607.38 282.81 607.38"/><polygon class="cls-15" points="562.27 607.38 562.27 303.62 282.81 607.38 562.27 607.38"/><polygon class="cls-16" points="281 607.38 281 303.62 -0.27 303.62 279.22 607.38 281 607.38"/><polygon class="cls-17" points="279.22 607.38 -0.27 303.62 -0.27 607.38 279.22 607.38"/><polygon class="cls-18" points="279.19 607.62 -0.27 911.38 281 911.38 281 607.62 279.19 607.62"/><polygon class="cls-19" points="-0.27 607.62 -0.27 911.38 279.19 607.62 -0.27 607.62"/><polygon class="cls-20" points="281 607.62 281 911.38 562.27 911.38 282.78 607.62 281 607.62"/><polygon class="cls-21" points="282.78 607.62 562.27 911.38 562.27 607.62 282.78 607.62"/><polygon class="cls-22" points="843.19 607.62 563.73 911.38 845 911.38 845 607.62 843.19 607.62"/><polygon class="cls-23" points="563.73 607.62 563.73 911.38 843.19 607.62 563.73 607.62"/><polygon class="cls-24" points="845 607.62 845 911.38 1126.27 911.38 846.78 607.62 845 607.62"/><polygon class="cls-25" points="846.78 607.62 1126.27 911.38 1126.27 607.62 846.78 607.62"/><polygon class="cls-26" points="846.81 1215.38 1126.27 911.62 845 911.62 845 1215.38 846.81 1215.38"/><polygon class="cls-27" points="1126.27 1215.38 1126.27 911.62 846.81 1215.38 1126.27 1215.38"/><polygon class="cls-28" points="845 1215.38 845 911.62 563.73 911.62 843.22 1215.38 845 1215.38"/><polygon class="cls-29" points="843.22 1215.38 563.73 911.62 563.73 1215.38 843.22 1215.38"/><polygon class="cls-30" points="282.81 1215.38 562.27 911.62 281 911.62 281 1215.38 282.81 1215.38"/><polygon class="cls-31" points="562.27 1215.38 562.27 911.62 282.81 1215.38 562.27 1215.38"/><polygon class="cls-32" points="281 1215.38 281 911.62 -0.27 911.62 279.22 1215.38 281 1215.38"/><polygon class="cls-33" points="279.22 1215.38 -0.27 911.62 -0.27 1215.38 279.22 1215.38"/><polygon class="cls-34" points="279.19 1215.62 -0.27 1519.38 281 1519.38 281 1215.62 279.19 1215.62"/><polygon class="cls-35" points="-0.27 1215.62 -0.27 1519.38 279.19 1215.62 -0.27 1215.62"/><polygon class="cls-36" points="281 1215.62 281 1519.38 562.27 1519.38 282.78 1215.62 281 1215.62"/><polygon class="cls-37" points="282.78 1215.62 562.27 1519.38 562.27 1215.62 282.78 1215.62"/><polygon class="cls-38" points="843.19 1215.62 563.73 1519.38 845 1519.38 845 1215.62 843.19 1215.62"/><polygon class="cls-39" points="563.73 1215.62 563.73 1519.38 843.19 1215.62 563.73 1215.62"/><polygon class="cls-40" points="845 1215.62 845 1519.38 1126.27 1519.38 846.78 1215.62 845 1215.62"/><polygon class="cls-41" points="846.78 1215.62 1126.27 1519.38 1126.27 1215.62 846.78 1215.62"/><polygon class="cls-42" points="846.81 1823.38 1126.27 1519.62 845 1519.62 845 1823.38 846.81 1823.38"/><polygon class="cls-43" points="1126.27 1823.38 1126.27 1519.62 846.81 1823.38 1126.27 1823.38"/><polygon class="cls-44" points="845 1823.38 845 1519.62 563.73 1519.62 843.22 1823.38 845 1823.38"/><polygon class="cls-45" points="843.22 1823.38 563.73 1519.62 563.73 1823.38 843.22 1823.38"/><polygon class="cls-46" points="282.81 1823.38 562.27 1519.62 281 1519.62 281 1823.38 282.81 1823.38"/><polygon class="cls-47" points="562.27 1823.38 562.27 1519.62 282.81 1823.38 562.27 1823.38"/><polygon class="cls-48" points="281 1823.38 281 1519.62 -0.27 1519.62 279.22 1823.38 281 1823.38"/><polygon class="cls-49" points="279.22 1823.38 -0.27 1519.62 -0.27 1823.38 279.22 1823.38"/><polygon class="cls-50" points="279.19 1823.62 -0.27 2127.38 281 2127.38 281 1823.62 279.19 1823.62"/><polygon class="cls-51" points="-0.27 1823.62 -0.27 2127.38 279.19 1823.62 -0.27 1823.62"/><polygon class="cls-52" points="281 1823.62 281 2127.38 562.27 2127.38 282.78 1823.62 281 1823.62"/><polygon class="cls-53" points="282.78 1823.62 562.27 2127.38 562.27 1823.62 282.78 1823.62"/><polygon class="cls-54" points="843.19 1823.62 563.73 2127.38 845 2127.38 845 1823.62 843.19 1823.62"/><polygon class="cls-55" points="563.73 1823.62 563.73 2127.38 843.19 1823.62 563.73 1823.62"/><polygon class="cls-56" points="845 1823.62 845 2127.38 1126.27 2127.38 846.78 1823.62 845 1823.62"/><polygon class="cls-57" points="846.78 1823.62 1126.27 2127.38 1126.27 1823.62 846.78 1823.62"/><polygon class="cls-58" points="846.81 2431.38 1126.27 2127.62 845 2127.62 845 2431.38 846.81 2431.38"/><polygon class="cls-59" points="1126.27 2431.38 1126.27 2127.62 846.81 2431.38 1126.27 2431.38"/><polygon class="cls-60" points="845 2431.38 845 2127.62 563.73 2127.62 843.22 2431.38 845 2431.38"/><polygon class="cls-61" points="843.22 2431.38 563.73 2127.62 563.73 2431.38 843.22 2431.38"/><polygon class="cls-62" points="282.81 2431.38 562.27 2127.62 281 2127.62 281 2431.38 282.81 2431.38"/><polygon class="cls-63" points="562.27 2431.38 562.27 2127.62 282.81 2431.38 562.27 2431.38"/><polygon class="cls-64" points="281 2431.38 281 2127.62 -0.27 2127.62 279.22 2431.38 281 2431.38"/><polygon class="cls-65" points="279.22 2431.38 -0.27 2127.62 -0.27 2431.38 279.22 2431.38"/></g><rect class="cls-66" width="1126" height="2431"/></svg>